<mxfile host="65bd71144e">
    <diagram id="3NjWRaJvykpaBfTy5oMn" name="Page-1">
        <mxGraphModel dx="1137" dy="782" grid="1" gridSize="10" guides="1" tooltips="1" connect="1" arrows="1" fold="1" page="1" pageScale="1" pageWidth="850" pageHeight="1100" math="0" shadow="0">
            <root>
                <mxCell id="0"/>
                <mxCell id="1" parent="0"/>
                <mxCell id="2" value="" style="rounded=0;whiteSpace=wrap;html=1;" vertex="1" parent="1">
                    <mxGeometry x="40" y="40" width="760" height="120" as="geometry"/>
                </mxCell>
                <mxCell id="3" value="THIS IS MY BOX" style="swimlane;fillColor=#FF8000;fontColor=#ffffff;strokeColor=#001DBC;gradientColor=#FFFF00;gradientDirection=east;" vertex="1" collapsed="1" parent="1">
                    <mxGeometry x="50" y="50" width="120" height="23" as="geometry">
                        <mxRectangle x="50" y="50" width="740" height="90" as="alternateBounds"/>
                    </mxGeometry>
                </mxCell>
            </root>
        </mxGraphModel>
    </diagram>
</mxfile>